<svg width="267" height="268" viewBox="0 0 267 268" fill="none" xmlns="http://www.w3.org/2000/svg">
<g clip-path="url(#clip0_1_112)">
<path d="M133.502 266.984C206.672 266.984 265.987 207.446 265.987 134.002C265.987 60.5583 206.672 1.02045 133.502 1.02045C60.3323 1.02045 1.0166 60.5583 1.0166 134.002C1.0166 207.446 60.3323 266.984 133.502 266.984Z" fill="white" stroke="#1E5A4A" stroke-width="5" stroke-miterlimit="10"/>
<path d="M133.502 227.329C184.853 227.329 226.481 185.545 226.481 134.002C226.481 82.4591 184.853 40.6753 133.502 40.6753C82.1514 40.6753 40.5236 82.4591 40.5236 134.002C40.5236 185.545 82.1514 227.329 133.502 227.329Z" fill="#1E5A4A"/>
<path d="M89.2449 126.065C89.3181 125.272 89.4034 124.492 89.5009 123.712C90.9028 113.469 96.1202 103.8 103.922 97.0087C110.176 91.5706 118.026 88.0224 126.23 86.8397C130.399 86.2422 134.678 86.2422 138.859 86.7543C140.871 86.9982 142.858 87.4737 144.796 88.0468C151.293 89.9489 157.023 93.1923 162.021 97.7769C166.836 102.179 170.481 107.361 172.956 113.372C174.54 117.213 175.54 121.2 175.954 125.346C176.113 126.919 176.113 128.491 176.113 130.064C176.125 145.733 176.113 161.401 176.113 177.057C176.113 177.52 176.223 178.008 175.942 178.471C175.455 178.264 175.625 177.825 175.625 177.496C175.613 174.301 175.613 171.119 175.613 167.924C175.613 155.255 175.698 142.599 175.589 129.93C175.503 119.847 172.346 110.775 165.958 102.922C159.327 94.7774 150.806 89.7294 140.529 87.6566C137.896 87.1201 135.214 86.8397 132.545 86.8884C124.06 87.0348 115.808 89.4246 108.737 94.1677C102.337 98.4719 97.1442 104.544 93.8285 111.494C92.6216 114.03 91.6586 116.688 90.9759 119.42C88.7207 128.504 89.4887 138.027 89.6838 147.379C89.8179 154.012 89.6594 160.657 89.5009 167.29C89.4034 171.021 89.3181 174.764 89.2206 178.496C89.1474 164.278 89.0743 150.061 89.0011 135.832C88.9767 132.601 88.9646 129.321 89.2449 126.065Z" fill="white"/>
<path d="M146.332 129.979C146.332 138.075 140.761 144.05 133.617 144.489C132.886 144.538 132.728 144.818 132.74 145.464C132.764 149.098 132.764 152.731 132.74 156.365C132.74 157.036 132.984 157.304 133.617 157.45C137.104 158.279 138.542 162.12 136.482 165.034C135.349 166.644 133.02 167.412 131.167 166.79C128.863 166.022 127.583 164.132 127.717 161.73C127.827 159.791 129.4 157.889 131.338 157.487C132.045 157.34 132.277 157.048 132.264 156.353C132.24 152.719 132.24 149.086 132.264 145.452C132.264 144.782 132.069 144.55 131.362 144.477C125.816 143.904 121.842 141.026 119.782 135.868C117.831 130.967 118.636 126.333 121.939 122.175C126.596 116.335 135.409 115.616 140.968 120.042C144.43 122.809 146.234 126.419 146.332 129.979Z" fill="white"/>
<path d="M171.895 153.073C171.895 161.133 171.895 169.18 171.883 177.24C171.883 177.666 172.102 178.447 171.566 178.447C171.042 178.435 171.286 177.654 171.286 177.227C171.273 161.596 171.31 145.952 171.261 130.32C171.237 120.578 168.104 111.933 161.655 104.556C155.609 97.6428 148.039 93.3874 139.006 91.8389C132.533 90.7293 126.145 91.2536 119.904 93.4362C113.821 95.57 108.591 98.9962 104.227 103.715C99.814 108.483 96.803 114.03 95.1573 120.322C94.182 124.053 93.8895 127.845 93.8895 131.662C93.8651 146.854 93.8895 162.047 93.8651 177.24C93.8651 177.666 94.0967 178.435 93.5481 178.422C93.0483 178.41 93.2556 177.63 93.2556 177.191C93.2434 161.108 93.1093 145.025 93.2922 128.955C93.3897 119.968 96.4982 111.909 102.24 104.934C106.848 99.3498 112.565 95.3383 119.367 92.8875C122.793 91.656 126.34 90.961 129.985 90.7171C137.994 90.1806 145.503 91.8754 152.378 95.9845C162.313 101.923 168.591 110.568 171.03 121.944C171.651 124.858 171.895 127.796 171.895 130.772C171.895 138.222 171.895 145.647 171.895 153.073Z" fill="white"/>
<path d="M166.885 152.585C166.885 144.562 166.946 136.539 166.86 128.516C166.812 124.48 165.861 120.578 164.288 116.847C160.973 108.97 155.45 103.105 147.868 99.2157C144.101 97.2892 140.066 96.1552 135.848 95.7651C127.01 94.9481 119.001 97.2282 111.943 102.557C105.336 107.544 101.045 114.116 99.1435 122.224C98.4608 125.163 98.2048 128.126 98.2048 131.137C98.217 146.452 98.217 161.779 98.2048 177.093C98.2048 177.557 98.412 178.435 97.9244 178.41C97.2662 178.386 97.5831 177.532 97.5831 177.057C97.5587 161.133 97.4612 145.22 97.6075 129.296C97.6928 120.212 101.045 112.311 107.323 105.715C111.553 101.276 116.612 98.1671 122.476 96.4113C124.987 95.6553 127.559 95.2285 130.18 95.0457C136.702 94.5823 142.87 95.8382 148.636 98.8621C157.035 103.276 162.752 110.031 165.788 119.042C167.043 122.785 167.543 126.638 167.543 130.589C167.531 146.098 167.543 161.608 167.531 177.118C167.531 177.581 167.775 178.41 167.214 178.41C166.665 178.41 166.909 177.569 166.909 177.106C166.897 168.924 166.897 160.742 166.897 152.561C166.921 152.585 166.909 152.585 166.885 152.585Z" fill="white"/>
<path d="M102.605 152.902C102.605 161.023 102.605 169.131 102.593 177.252C102.593 177.679 102.825 178.471 102.301 178.459C101.655 178.447 101.947 177.654 101.947 177.203C101.935 161.315 101.874 145.428 101.959 129.54C102.008 122.114 104.519 115.53 109.432 109.885C114.137 104.471 120.001 101.008 127.059 99.8009C135.58 98.3378 143.492 99.996 150.55 105.129C156.572 109.507 160.485 115.347 162.338 122.566C162.947 124.931 163.216 127.345 163.216 129.772C163.24 145.562 163.228 161.352 163.216 177.142C163.216 177.593 163.484 178.422 162.911 178.422C162.399 178.422 162.606 177.581 162.606 177.106C162.594 161.913 162.569 146.72 162.606 131.528C162.618 126.431 161.85 121.554 159.583 116.945C158.376 114.494 156.901 112.226 155.097 110.177C150.16 104.581 143.967 101.179 136.604 100.216C127.51 99.0206 119.428 101.557 112.541 107.666C107.116 112.482 104.02 118.603 102.837 125.711C102.666 126.736 102.605 127.784 102.605 128.821C102.605 136.856 102.605 144.879 102.605 152.902Z" fill="white"/>
<path d="M158.876 152.719C158.876 160.937 158.876 169.143 158.864 177.362C158.864 177.752 159.107 178.471 158.547 178.471C157.974 178.483 158.205 177.764 158.205 177.374C158.193 161.364 158.205 145.342 158.181 129.333C158.169 123.87 156.365 118.981 153.146 114.64C149.258 109.397 144.052 106.117 137.689 104.8C132.228 103.666 126.901 104.3 121.805 106.678C117.283 108.787 113.65 111.933 110.98 116.14C108.432 120.139 106.97 124.504 106.97 129.272C106.945 145.257 106.957 161.242 106.945 177.227C106.945 177.666 107.238 178.471 106.592 178.483C106.055 178.496 106.299 177.703 106.299 177.276C106.287 161.389 106.141 145.501 106.336 129.613C106.458 119.517 111.212 111.836 120.025 106.934C127.9 102.544 136.153 102.41 144.186 106.397C152.159 110.348 157.011 116.896 158.559 125.772C158.815 127.272 158.9 128.772 158.9 130.296C158.876 137.746 158.876 145.233 158.876 152.719Z" fill="white"/>
<path d="M111.297 152.683C111.297 160.901 111.297 169.107 111.285 177.325C111.285 177.727 111.48 178.459 110.98 178.459C110.358 178.459 110.627 177.715 110.627 177.301C110.614 161.474 110.602 145.647 110.614 129.821C110.614 119.639 117.685 110.811 127.644 108.531C137.214 106.349 146.99 110.677 151.757 119.212C153.622 122.541 154.536 126.089 154.536 129.894C154.536 145.659 154.536 161.425 154.524 177.179C154.524 177.63 154.804 178.447 154.195 178.447C153.634 178.447 153.866 177.605 153.866 177.154C153.853 161.206 153.914 145.245 153.829 129.296C153.792 122.517 150.745 117.079 145.442 112.957C141.005 109.507 135.86 108.08 130.326 108.726C123.061 109.58 117.514 113.274 113.906 119.688C112.053 122.968 111.248 126.516 111.285 130.308C111.358 137.77 111.297 145.233 111.297 152.683Z" fill="white"/>
<path d="M30.0601 114.43L29.2183 112.744C30.2187 112.446 30.8125 111.903 30.9995 111.095C31.2842 109.862 30.4831 108.825 28.9337 108.466L21.2682 106.682L20.3898 110.479L18.6371 110.07L19.9465 104.393L29.3444 106.58C31.9186 107.18 33.2809 109.18 32.74 111.523C32.4066 112.997 31.4712 114.013 30.0601 114.43Z" fill="black"/>
<path d="M25.7373 86.6162L26.0301 85.9509L41.2147 86.755L40.3852 88.6326L37.0262 88.4122L34.9522 93.1145L37.3759 95.4615L36.5463 97.3391L25.7373 86.6162ZM35.1189 88.2897L29.5884 87.9183L33.5777 91.7756L35.1189 88.2897Z" fill="black"/>
<path d="M45.566 77.7709L40.7268 64.9703L36.4975 70.9298L35.0336 69.8848L41.0237 61.4436L41.597 61.8518L46.4485 74.6361L50.8119 68.4889L52.2759 69.5338L46.1394 78.1791L45.566 77.7709Z" fill="black"/>
<path d="M53.016 47.9083L53.5446 47.4144L67.1921 54.1413L65.6956 55.5413L62.6945 54.0147L58.9491 57.521L60.2586 60.6314L58.7621 62.0314L53.016 47.9083ZM60.9865 53.1453L56.0456 50.6268L58.205 55.7495L60.9865 53.1453Z" fill="black"/>
<path d="M68.469 36.0057L70.0956 34.9812L76.5046 45.2143L81.0348 42.357L81.9904 43.8837L75.8336 47.7695L68.469 36.0057Z" fill="black"/>
<path d="M90.5465 24.0623L91.2216 23.8011L101.412 35.1241L99.5052 35.8669L97.2808 33.3321L92.5066 35.1934L92.5717 38.5691L90.6644 39.312L90.5465 24.0623ZM96.0161 31.8912L92.3602 27.7115L92.4741 33.2709L96.0161 31.8912Z" fill="black"/>
<path d="M122.608 16.4742L124.633 16.4416L128.073 26.2134L131.631 16.3273L132.335 16.315L136.21 26.0787L139.333 16.2007L141.359 16.1681L136.735 30.5075L136.031 30.5198L132.046 20.3438L128.37 30.6463L127.666 30.6585L122.608 16.4742Z" fill="black"/>
<path d="M155.035 18.2416L162.241 19.8091L161.858 21.5724L156.531 20.4132L155.681 24.344L159.719 25.2215L159.337 26.9849L155.299 26.1073L154.359 30.4626L159.788 31.6423L159.41 33.4056L152.103 31.8178L155.035 18.2416Z" fill="black"/>
<path d="M175.64 24.0991L177.413 24.842L172.781 35.9976L177.718 38.063L177.027 39.7283L170.317 36.9201L175.64 24.0991Z" fill="black"/>
<path d="M194.285 33.2913L195.9 34.3363L189.377 44.4959L193.875 47.4063L192.903 48.9206L186.791 44.9694L194.285 33.2913Z" fill="black"/>
<path d="M209.889 49.9125L202.98 57.023L201.605 55.676L211.528 45.4633L212.032 45.9572L211.178 59.5129L218.087 52.4024L219.461 53.7494L209.539 63.9621L209.035 63.4682L209.889 49.9125Z" fill="black"/>
<path d="M228.725 65.2316L232.857 71.3625L231.368 72.3748L228.314 67.8398L224.996 70.093L227.31 73.5258L225.822 74.5381L223.508 71.1053L219.832 73.6034L222.942 78.224L221.454 79.2363L217.266 73.0197L228.725 65.2316Z" fill="black"/>
<path d="M228.623 87.2407L230.299 88.0897C229.368 89.4694 229.229 90.7062 229.75 91.9062C230.327 93.2369 231.417 93.8247 232.572 93.3185C233.577 92.8777 233.979 91.8899 233.918 89.8816C233.849 87.1305 234.585 85.608 236.252 84.8773C238.278 83.9916 240.352 84.8692 241.283 87.0162C241.933 88.5183 241.836 90.098 240.978 91.6532L239.298 90.849C239.969 89.6939 240.051 88.6898 239.628 87.7183C239.132 86.5795 238.176 86.1386 237.151 86.5835C236.167 87.0162 235.805 87.9428 235.858 89.8857C235.923 92.6859 235.175 94.2778 233.471 95.0247C231.332 95.9595 229.107 94.9431 228.095 92.6083C227.318 90.8205 227.485 88.8694 228.623 87.2407Z" fill="black"/>
<path d="M235.52 105.417L237.013 106.56C235.846 107.744 235.48 108.936 235.773 110.209C236.098 111.621 237.062 112.401 238.286 112.115C239.351 111.87 239.929 110.968 240.238 108.985C240.673 106.266 241.673 104.907 243.446 104.499C245.597 104.001 247.476 105.246 248.001 107.527C248.367 109.123 247.98 110.658 246.85 112.026L245.345 110.928C246.216 109.919 246.48 108.944 246.24 107.911C245.963 106.699 245.101 106.091 244.016 106.344C242.97 106.584 242.442 107.429 242.141 109.352C241.694 112.115 240.665 113.544 238.855 113.964C236.582 114.491 234.581 113.083 234.012 110.597C233.585 108.695 234.101 106.809 235.52 105.417Z" fill="black"/>
<path d="M236.944 153.562L237.786 155.248C236.785 155.546 236.191 156.089 236.004 156.897C235.72 158.13 236.521 159.166 238.07 159.526L245.736 161.309L246.61 157.513L248.363 157.922L247.053 163.599L237.655 161.416C235.081 160.816 233.719 158.82 234.26 156.477C234.597 154.995 235.533 153.978 236.944 153.562Z" fill="black"/>
<path d="M241.271 181.372L240.978 182.037L225.793 181.233L226.619 179.355L229.978 179.576L232.048 174.873L229.624 172.53L230.449 170.653L241.271 181.372ZM231.889 179.702L237.416 180.069L233.426 176.212L231.889 179.702Z" fill="black"/>
<path d="M221.442 190.221L226.281 203.022L230.51 197.062L231.974 198.107L225.984 206.548L225.411 206.14L220.559 193.356L216.196 199.503L214.732 198.458L220.869 189.813L221.442 190.221Z" fill="black"/>
<path d="M213.988 220.096L213.459 220.59L199.812 213.863L201.308 212.463L204.309 213.989L208.055 210.483L206.745 207.373L208.242 205.973L213.988 220.096ZM206.013 214.859L210.954 217.377L208.795 212.255L206.013 214.859Z" fill="black"/>
<path d="M198.535 231.994L196.908 233.019L190.499 222.786L185.969 225.643L185.013 224.116L191.17 220.23L198.535 231.994Z" fill="black"/>
<path d="M176.457 243.938L175.782 244.199L165.591 232.876L167.499 232.133L169.723 234.668L174.497 232.807L174.432 229.431L176.339 228.688L176.457 243.938ZM170.988 236.109L174.644 240.289L174.53 234.729L170.988 236.109Z" fill="black"/>
<path d="M144.396 251.53L142.371 251.563L138.931 241.791L135.373 251.677L134.669 251.689L130.794 241.925L127.67 251.803L125.645 251.836L130.269 237.497L130.972 237.484L134.958 247.66L138.634 237.358L139.337 237.346L144.396 251.53Z" fill="black"/>
<path d="M111.969 249.762L104.763 248.195L105.146 246.432L110.473 247.591L111.323 243.66L107.285 242.783L107.667 241.019L111.705 241.897L112.644 237.542L107.215 236.362L107.598 234.599L114.905 236.186L111.969 249.762Z" fill="black"/>
<path d="M91.3599 243.901L89.5869 243.158L94.2187 232.002L89.2819 229.937L89.9732 228.272L96.6831 231.08L91.3599 243.901Z" fill="black"/>
<path d="M72.7187 234.713L71.1042 233.668L77.6271 223.508L73.1294 220.598L74.1013 219.083L80.2134 223.035L72.7187 234.713Z" fill="black"/>
<path d="M57.1151 218.088L64.0242 210.977L65.3988 212.324L55.4763 222.537L54.972 222.043L55.826 208.487L48.9169 215.598L47.5424 214.251L57.4648 204.038L57.9691 204.532L57.1151 218.088Z" fill="black"/>
<path d="M38.2746 202.768L34.1429 196.638L35.6313 195.625L38.6853 200.16L42.0037 197.907L39.6898 194.474L41.1781 193.466L43.492 196.899L47.1682 194.401L44.0573 189.78L45.5457 188.768L49.7342 194.984L38.2746 202.768Z" fill="black"/>
<path d="M38.3804 180.763L36.7049 179.914C37.6362 178.535 37.7744 177.298 37.2539 176.098C36.6765 174.767 35.5866 174.179 34.4317 174.686C33.4273 175.126 33.0247 176.114 33.0857 178.122C33.1548 180.874 32.4187 182.396 30.7514 183.127C28.7263 184.013 26.6523 183.135 25.7211 180.988C25.0704 179.486 25.168 177.906 26.0261 176.351L27.7056 177.155C27.0346 178.306 26.9532 179.314 27.3762 180.286C27.8723 181.425 28.8279 181.865 29.8527 181.421C30.8368 180.988 31.1988 180.061 31.1459 178.118C31.0808 175.318 31.8291 173.726 33.533 172.979C35.672 172.045 37.8964 173.061 38.909 175.396C39.6857 177.18 39.519 179.131 38.3804 180.763Z" fill="black"/>
<path d="M31.4794 162.583L29.9869 161.44C31.154 160.256 31.52 159.064 31.2272 157.791C30.9019 156.379 29.9381 155.599 28.7141 155.885C27.6486 156.134 27.0712 157.032 26.7621 159.015C26.327 161.734 25.3266 163.093 23.5536 163.501C21.4024 163.999 19.5236 162.754 18.999 160.473C18.633 158.877 19.0193 157.342 20.1499 155.975L21.6545 157.073C20.7842 158.081 20.5199 159.056 20.7598 160.089C21.0364 161.301 21.8985 161.909 22.9843 161.656C24.0294 161.416 24.558 160.571 24.859 158.648C25.3063 155.885 26.3311 154.456 28.1448 154.036C30.418 153.509 32.4188 154.917 32.9881 157.403C33.4191 159.305 32.8986 161.191 31.4794 162.583Z" fill="black"/>
<path d="M21.4024 138.917C24.3086 138.917 26.6646 136.552 26.6646 133.635C26.6646 130.718 24.3086 128.353 21.4024 128.353C18.4962 128.353 16.1403 130.718 16.1403 133.635C16.1403 136.552 18.4962 138.917 21.4024 138.917Z" fill="black"/>
<path d="M244.422 138.917C247.328 138.917 249.684 136.552 249.684 133.635C249.684 130.718 247.328 128.353 244.422 128.353C241.516 128.353 239.16 130.718 239.16 133.635C239.16 136.552 241.516 138.917 244.422 138.917Z" fill="black"/>
</g>
<defs>
<clipPath id="clip0_1_112">
<rect width="267" height="268" fill="white"/>
</clipPath>
</defs>
</svg>
